<svg xmlns="http://www.w3.org/2000/svg" viewBox="0 0 120 120" width="100%" height="100%">
  <defs>
    <linearGradient id="bg-riya" x1="0%" y1="0%" x2="100%" y2="100%">
      <stop offset="0%" stop-color="#0f766e" />
      <stop offset="100%" stop-color="#14b8a6" />
    </linearGradient>
    <clipPath id="clip-circle-riya">
      <circle cx="60" cy="60" r="56" />
    </clipPath>
  </defs>
  <circle cx="60" cy="60" r="58" fill="#ccfbf1" />
  <g clip-path="url(#clip-circle-riya)">
    <rect width="120" height="120" fill="url(#bg-riya)" />
    <!-- Hair back -->
    <path d="M30 40c0-18 14-28 30-28s30 10 30 28v50c-10 10-20 12-30 12s-20-2-30-12Z" fill="#18181b" />
    <!-- Shoulders -->
    <path d="M22 120c0-20 16-32 38-32s38 12 38 32Z" fill="#134e4a" />
    <path d="M42 120c2-12 8-16 18-16s16 4 18 16Z" fill="#2dd4bf" />
    <!-- Neck -->
    <rect x="52" y="68" width="16" height="20" rx="4" fill="#fcd34d" />
    <!-- Head -->
    <ellipse cx="60" cy="54" rx="19" ry="22" fill="#fef08a" />
    <!-- Hair front strands -->
    <path d="M38 42c6-14 18-18 22-18s16 4 22 18c-4 12-10 24-12 28-2-12-6-16-10-16s-8 4-10 16c-2-4-8-16-12-28Z" fill="#18181b" />
    <!-- Eyes & Smile -->
    <circle cx="53" cy="54" r="2.2" fill="#18181b" />
    <circle cx="67" cy="54" r="2.2" fill="#18181b" />
    <path d="M54 64q6 5 12 0" fill="none" stroke="#e11d48" stroke-width="2.5" stroke-linecap="round" />
    <!-- Earrings -->
    <circle cx="39" cy="58" r="2" fill="#fbbf24" />
    <circle cx="81" cy="58" r="2" fill="#fbbf24" />
  </g>
</svg>
