<svg xmlns="http://www.w3.org/2000/svg" viewBox="0 0 120 120" width="100%" height="100%">
  <defs>
    <linearGradient id="bg-alex" x1="0%" y1="0%" x2="100%" y2="100%">
      <stop offset="0%" stop-color="#6366f1" />
      <stop offset="100%" stop-color="#4338ca" />
    </linearGradient>
    <clipPath id="clip-circle">
      <circle cx="60" cy="60" r="56" />
    </clipPath>
  </defs>
  <circle cx="60" cy="60" r="58" fill="#e0e7ff" />
  <g clip-path="url(#clip-circle)">
    <rect width="120" height="120" fill="url(#bg-alex)" />
    <!-- Shoulders -->
    <path d="M20 120c0-22 18-36 40-36s40 14 40 36Z" fill="#312e81" />
    <path d="M36 120c4-14 12-20 24-20s20 6 24 20Z" fill="#4f46e5" />
    <!-- Neck -->
    <rect x="52" y="68" width="16" height="20" rx="4" fill="#fcd34d" />
    <!-- Head -->
    <ellipse cx="60" cy="52" rx="20" ry="24" fill="#fde68a" />
    <!-- Hair -->
    <path d="M38 46c0-14 10-24 22-24s22 10 22 24c0 4-2 6-4 4-4-5-8-8-18-8s-14 3-18 8c-2 2-4 0-4-4Z" fill="#1e1b4b" />
    <!-- Eyes & Smile -->
    <circle cx="53" cy="52" r="2.5" fill="#1e1b4b" />
    <circle cx="67" cy="52" r="2.5" fill="#1e1b4b" />
    <!-- Glasses -->
    <rect x="46" y="47" width="13" height="10" rx="3" fill="none" stroke="#4338ca" stroke-width="2" />
    <rect x="61" y="47" width="13" height="10" rx="3" fill="none" stroke="#4338ca" stroke-width="2" />
    <line x1="59" y1="52" x2="61" y2="52" stroke="#4338ca" stroke-width="2" />
    <path d="M54 63q6 5 12 0" fill="none" stroke="#b45309" stroke-width="2.5" stroke-linecap="round" />
  </g>
</svg>
